<svg
    xmlns="http://www.w3.org/2000/svg"
    height="40"
    viewBox="0 0 100 100"
    preserveAspectRatio="xMidYMid meet"
    >
    <g fill="#ca8a04">
        <path d="M94.869 13.63V48.5h-13.91c.18-.68.271-1.381.271-2.09 0-4.49-3.65-8.15-8.141-8.15s-8.15 3.66-8.15 8.15c0 .709.1 1.41.279 2.09H51.5V29.75l-2.31 1.49c-.83.539-1.79.819-2.78.819-2.84 0-5.15-2.31-5.15-5.149 0-2.83 2.311-5.141 5.15-5.141.99 0 1.95.28 2.78.82l2.31 1.49V5.13h34.869c4.692 0 8.5 3.809 8.5 8.5z"></path>
        <path d="M38.259 26.91c0 4.49 3.66 8.149 8.15 8.149.71 0 1.42-.09 2.09-.27V48.5H29.75l1.49 2.31c.54.841.82 1.8.82 2.78 0 2.84-2.311 5.15-5.15 5.15-2.83 0-5.14-2.311-5.14-5.15 0-.98.29-1.939.819-2.78l1.49-2.31H5.129V13.63c0-4.69 3.82-8.5 8.5-8.5H48.5v13.91a8.053 8.053 0 00-2.09-.271c-4.491.001-8.151 3.651-8.151 8.141z"></path>
        <path d="M58.74 73.09c0 2.83-2.311 5.14-5.15 5.14-.98 0-1.939-.279-2.77-.82l-2.32-1.49v18.95H13.63c-4.68 0-8.5-3.811-8.5-8.5V51.5h13.92a8.16 8.16 0 00-.279 2.09c0 4.49 3.659 8.15 8.14 8.15 4.5 0 8.15-3.66 8.15-8.15 0-.71-.091-1.41-.271-2.09H48.5v18.75l2.32-1.49a5.07 5.07 0 012.77-.819 5.154 5.154 0 015.15 5.149z"></path>
        <path d="M94.869 51.5v34.87c0 4.689-3.809 8.5-8.5 8.5H51.5V80.96c.68.18 1.379.27 2.09.27 4.5 0 8.15-3.65 8.15-8.14s-3.65-8.149-8.15-8.149c-.711 0-1.41.09-2.09.27V51.5h18.75l-1.49-2.311c-.529-.84-.82-1.8-.82-2.779 0-2.84 2.311-5.15 5.15-5.15s5.141 2.311 5.141 5.15c0 .979-.281 1.939-.82 2.779L75.92 51.5h18.949z"></path>
    </g>
</svg>